<svg xmlns="http://www.w3.org/2000/svg" viewBox="0 0 128 128" role="img" aria-label="GitHub Timestamp Revealer icon">
  <defs>
    <linearGradient id="background" x1="18" y1="14" x2="112" y2="118" gradientUnits="userSpaceOnUse">
      <stop offset="0" stop-color="#0969da" />
      <stop offset="1" stop-color="#1f883d" />
    </linearGradient>
    <filter id="shadow" x="-20%" y="-20%" width="140%" height="140%">
      <feDropShadow dx="0" dy="4" stdDeviation="5" flood-color="#0d1117" flood-opacity="0.28" />
    </filter>
  </defs>

  <rect width="128" height="128" rx="28" fill="url(#background)" />
  <path d="M28 32h72a10 10 0 0 1 10 10v54a10 10 0 0 1-10 10H28a10 10 0 0 1-10-10V42a10 10 0 0 1 10-10Z" fill="#f6f8fa" filter="url(#shadow)" />
  <path d="M28 32h72a10 10 0 0 1 10 10v12H18V42a10 10 0 0 1 10-10Z" fill="#24292f" />
  <circle cx="38" cy="43" r="4" fill="#f6f8fa" opacity="0.92" />
  <circle cx="52" cy="43" r="4" fill="#f6f8fa" opacity="0.92" />
  <path d="M32 72h26M32 88h19" stroke="#57606a" stroke-width="8" stroke-linecap="round" opacity="0.55" />

  <circle cx="81" cy="80" r="26" fill="#ffffff" stroke="#0969da" stroke-width="8" />
  <path d="M81 64v17l12 8" stroke="#24292f" stroke-width="7" stroke-linecap="round" stroke-linejoin="round" />
  <circle cx="81" cy="80" r="4.5" fill="#24292f" />
  <path d="M95 58l10-10" stroke="#f2cc60" stroke-width="7" stroke-linecap="round" />
</svg>
